# xmcd CD database file generated by Grip 3.3.1
# 
# Track frame offsets:
#       150
#       13928
#       28307
#       43485
#       56191
#       71287
#       92133
#       109230
#       121046
#       138337
# 
# Disc length: 2059 seconds
# 
# Revision: 8
# Processed by: cddbd v1.5.2PL0 Copyright (c) Steve Scherf et al.
# Submitted via: Grip 3.3.1
# 
DISCID=9108090a
DTITLE=The Highwayman - Highwayman
DYEAR=1985
DGENRE=Country
TTITLE0=Highwayman
TTITLE1=The Last Cowboy Song
TTITLE2=Jim I Wore A Tie Today
TTITLE3=Big River
TTITLE4=Committed To Parkview
TTITLE5=Desperados Waiting For A Train
TTITLE6=Deportee Plane Wreck At Los Gatos
TTITLE7=Welfare Line
TTITLE8=Against The Wind
TTITLE9=The Twentieth Century Is Almost Over
EXTD=
EXTT0=
EXTT1=
EXTT2=
EXTT3=
EXTT4=
EXTT5=
EXTT6=
EXTT7=
EXTT8=
EXTT9=
PLAYORDER=
